<?xml version="1.0" encoding="utf-8"?>
<!-- Generator: Adobe Illustrator 27.2.0, SVG Export Plug-In . SVG Version: 6.00 Build 0)  -->
<svg version="1.1" id="Layer_1" xmlns="http://www.w3.org/2000/svg" xmlns:xlink="http://www.w3.org/1999/xlink" x="0px" y="0px"
	 viewBox="0 0 960 463.9" style="enable-background:new 0 0 960 463.9;" xml:space="preserve">
<style type="text/css">
	.st0{clip-path:url(#SVGID_00000006674077400861419470000013574451158299281068_);}
	.st1{fill-rule:evenodd;clip-rule:evenodd;fill:#FFFFFF;}
	.st2{fill-rule:evenodd;clip-rule:evenodd;fill-opacity:0;}
	.st3{fill:#0000FF;}
</style>
<g>
	<defs>
		<rect id="SVGID_1_" y="-76.1" width="960" height="540"/>
	</defs>
	<clipPath id="SVGID_00000125592636264941025540000009245540766080920745_">
		<use xlink:href="#SVGID_1_"  style="overflow:visible;"/>
	</clipPath>
	<g style="clip-path:url(#SVGID_00000125592636264941025540000009245540766080920745_);">
		<path class="st1" d="M0-76.1h960v540H0V-76.1z"/>
		<path class="st2" d="M32.7-77.4h894.6v60.1H32.7L32.7-77.4z"/>
		<path class="st3" d="M43.5-45.6c0-4.4,1.2-7.9,3.6-10.4c2.4-2.5,5.5-3.8,9.2-3.8c2.5,0,4.7,0.6,6.7,1.8c2,1.2,3.5,2.8,4.5,4.9
			c1,2.1,1.6,4.5,1.6,7.2c0,2.7-0.5,5.1-1.6,7.3c-1.1,2.1-2.6,3.8-4.7,4.9c-2,1.1-4.2,1.6-6.5,1.6c-2.5,0-4.8-0.6-6.8-1.8
			c-2-1.2-3.5-2.9-4.5-5S43.5-43.2,43.5-45.6z M47.2-45.5c0,3.2,0.9,5.8,2.6,7.6s3.9,2.8,6.5,2.8c2.7,0,4.9-0.9,6.6-2.8
			s2.6-4.5,2.6-8c0-2.2-0.4-4.1-1.1-5.7c-0.7-1.6-1.8-2.9-3.2-3.8c-1.4-0.9-3-1.3-4.8-1.3c-2.5,0-4.7,0.9-6.5,2.6
			C48.1-52.4,47.2-49.5,47.2-45.5z M73.2-25.1v-26.8h3v2.5c0.7-1,1.5-1.7,2.4-2.2c0.9-0.5,2-0.8,3.2-0.8c1.7,0,3.1,0.4,4.4,1.3
			c1.3,0.8,2.2,2,2.9,3.6s1,3.3,1,5.1c0,2-0.4,3.8-1.1,5.4c-0.7,1.6-1.7,2.8-3.1,3.6c-1.4,0.8-2.8,1.3-4.3,1.3c-1.1,0-2.1-0.2-3-0.7
			c-0.9-0.5-1.6-1.1-2.1-1.8v9.4H73.2z M76.2-42.1c0,2.5,0.5,4.3,1.5,5.5c1,1.2,2.2,1.8,3.7,1.8c1.5,0,2.7-0.6,3.7-1.8
			c1-1.2,1.6-3.1,1.6-5.7c0-2.5-0.5-4.3-1.5-5.5c-1-1.2-2.2-1.8-3.6-1.8c-1.4,0-2.6,0.7-3.7,2S76.2-44.6,76.2-42.1z M101.1-35.5
			l0.5,2.9c-0.9,0.2-1.7,0.3-2.5,0.3c-1.2,0-2.1-0.2-2.8-0.6s-1.1-0.9-1.4-1.5c-0.3-0.6-0.4-1.9-0.4-3.9v-11.1h-2.4v-2.5h2.4v-4.8
			l3.3-2v6.8h3.3v2.5h-3.3V-38c0,0.9,0.1,1.5,0.2,1.8c0.1,0.3,0.3,0.5,0.6,0.6s0.6,0.2,1.1,0.2C100.1-35.4,100.6-35.4,101.1-35.5z
			 M104.4-55.5v-3.8h3.3v3.8H104.4z M104.4-32.6v-19.4h3.3v19.4H104.4z M112.6-32.6v-19.4h2.9v2.7c0.6-0.9,1.4-1.7,2.4-2.3
			c1-0.6,2.2-0.9,3.5-0.9c1.4,0,2.6,0.3,3.5,0.9c0.9,0.6,1.6,1.4,1.9,2.5c1.5-2.3,3.5-3.4,6-3.4c1.9,0,3.4,0.5,4.4,1.6
			s1.5,2.7,1.5,4.9v13.3h-3.3v-12.2c0-1.3-0.1-2.3-0.3-2.8c-0.2-0.6-0.6-1.1-1.2-1.4c-0.6-0.4-1.2-0.5-2-0.5c-1.4,0-2.5,0.5-3.4,1.4
			c-0.9,0.9-1.3,2.4-1.3,4.3v11.2h-3.3v-12.6c0-1.5-0.3-2.6-0.8-3.3c-0.5-0.7-1.4-1.1-2.6-1.1c-0.9,0-1.8,0.2-2.6,0.7
			c-0.8,0.5-1.3,1.2-1.7,2.1c-0.4,0.9-0.5,2.3-0.5,4v10H112.6z M143.8-55.5v-3.8h3.3v3.8H143.8z M143.8-32.6v-19.4h3.3v19.4H143.8z
			 M150.3-32.6v-2.7l12.3-14.2c-1.4,0.1-2.6,0.1-3.7,0.1H151v-2.7h15.8v2.2l-10.5,12.3l-2,2.2c1.5-0.1,2.8-0.2,4.1-0.2h9v2.8H150.3z
			 M170.7-55.5v-3.8h3.3v3.8H170.7z M170.7-32.6v-19.4h3.3v19.4H170.7z M179-32.6v-19.4h3v2.8c1.4-2.1,3.5-3.2,6.2-3.2
			c1.2,0,2.2,0.2,3.2,0.6c1,0.4,1.7,1,2.2,1.6c0.5,0.7,0.8,1.5,1,2.4c0.1,0.6,0.2,1.7,0.2,3.2v11.9h-3.3v-11.8c0-1.3-0.1-2.3-0.4-3
			c-0.2-0.7-0.7-1.2-1.4-1.6c-0.6-0.4-1.4-0.6-2.3-0.6c-1.4,0-2.6,0.4-3.6,1.3c-1,0.9-1.5,2.6-1.5,5v10.6H179z M199.1-31l3.2,0.5
			c0.1,1,0.5,1.7,1.1,2.2c0.8,0.6,1.9,0.9,3.3,0.9c1.5,0,2.7-0.3,3.5-0.9c0.8-0.6,1.4-1.5,1.7-2.5c0.2-0.7,0.3-2.1,0.2-4.2
			c-1.4,1.7-3.2,2.5-5.4,2.5c-2.7,0-4.7-1-6.2-2.9c-1.5-1.9-2.2-4.2-2.2-6.9c0-1.9,0.3-3.6,1-5.1s1.6-2.8,2.9-3.6
			c1.3-0.9,2.8-1.3,4.5-1.3c2.3,0,4.2,0.9,5.6,2.8v-2.3h3v16.7c0,3-0.3,5.1-0.9,6.4s-1.6,2.3-2.9,3c-1.3,0.7-3,1.1-4.9,1.1
			c-2.3,0-4.2-0.5-5.6-1.6C199.8-27.3,199.1-28.9,199.1-31z M201.9-42.6c0,2.5,0.5,4.4,1.5,5.6c1,1.2,2.3,1.8,3.8,1.8
			c1.5,0,2.8-0.6,3.8-1.7c1-1.2,1.5-3,1.5-5.5c0-2.4-0.5-4.1-1.6-5.3c-1.1-1.2-2.3-1.8-3.8-1.8c-1.5,0-2.7,0.6-3.7,1.8
			C202.4-46.7,201.9-44.9,201.9-42.6z M230.9-32.6v-19.4h2.9v2.7c0.6-0.9,1.4-1.7,2.4-2.3c1-0.6,2.2-0.9,3.5-0.9
			c1.4,0,2.6,0.3,3.5,0.9c0.9,0.6,1.6,1.4,1.9,2.5c1.5-2.3,3.5-3.4,6-3.4c1.9,0,3.4,0.5,4.4,1.6c1,1.1,1.5,2.7,1.5,4.9v13.3h-3.3
			v-12.2c0-1.3-0.1-2.3-0.3-2.8c-0.2-0.6-0.6-1.1-1.2-1.4c-0.6-0.4-1.2-0.5-2-0.5c-1.4,0-2.5,0.5-3.4,1.4c-0.9,0.9-1.3,2.4-1.3,4.3
			v11.2h-3.3v-12.6c0-1.5-0.3-2.6-0.8-3.3c-0.5-0.7-1.4-1.1-2.6-1.1c-0.9,0-1.8,0.2-2.6,0.7c-0.8,0.5-1.3,1.2-1.7,2.1
			c-0.4,0.9-0.5,2.3-0.5,4v10H230.9z M274.7-32.6v-2.8c-1.5,2.2-3.5,3.3-6.1,3.3c-1.1,0-2.2-0.2-3.2-0.7c-1-0.4-1.7-1-2.2-1.6
			c-0.5-0.7-0.8-1.5-1-2.4c-0.1-0.6-0.2-1.7-0.2-3.1v-12h3.3v10.7c0,1.7,0.1,2.9,0.2,3.5c0.2,0.9,0.6,1.5,1.3,2
			c0.7,0.5,1.5,0.7,2.5,0.7c1,0,1.9-0.2,2.8-0.8c0.9-0.5,1.5-1.2,1.8-2.1c0.4-0.9,0.5-2.1,0.5-3.8v-10.4h3.3v19.4H274.7z
			 M282.7-32.6v-26.7h3.3v26.7H282.7z M298.2-35.5l0.5,2.9c-0.9,0.2-1.7,0.3-2.5,0.3c-1.2,0-2.1-0.2-2.8-0.6s-1.1-0.9-1.4-1.5
			c-0.3-0.6-0.4-1.9-0.4-3.9v-11.1h-2.4v-2.5h2.4v-4.8l3.3-2v6.8h3.3v2.5h-3.3V-38c0,0.9,0.1,1.5,0.2,1.8c0.1,0.3,0.3,0.5,0.6,0.6
			c0.3,0.2,0.6,0.2,1.1,0.2C297.1-35.4,297.6-35.4,298.2-35.5z M301.4-55.5v-3.8h3.3v3.8H301.4z M301.4-32.6v-19.4h3.3v19.4H301.4z
			 M309.7-25.1v-26.8h3v2.5c0.7-1,1.5-1.7,2.4-2.2c0.9-0.5,2-0.8,3.2-0.8c1.7,0,3.1,0.4,4.4,1.3c1.3,0.8,2.2,2,2.9,3.6
			c0.6,1.6,1,3.3,1,5.1c0,2-0.4,3.8-1.1,5.4c-0.7,1.6-1.7,2.8-3.1,3.6c-1.4,0.8-2.8,1.3-4.3,1.3c-1.1,0-2.1-0.2-3-0.7
			c-0.9-0.5-1.6-1.1-2.1-1.8v9.4H309.7z M312.7-42.1c0,2.5,0.5,4.3,1.5,5.5c1,1.2,2.2,1.8,3.7,1.8c1.5,0,2.7-0.6,3.7-1.8
			c1-1.2,1.6-3.1,1.6-5.7c0-2.5-0.5-4.3-1.5-5.5c-1-1.2-2.2-1.8-3.6-1.8c-1.4,0-2.6,0.7-3.7,2C313.2-46.5,312.7-44.6,312.7-42.1z
			 M330.4-32.6v-26.7h3.3v26.7H330.4z M352-38.8l3.4,0.4c-0.5,2-1.5,3.5-3,4.6c-1.4,1.1-3.3,1.6-5.5,1.6c-2.8,0-5.1-0.9-6.8-2.6
			c-1.7-1.8-2.5-4.2-2.5-7.3c0-3.3,0.8-5.8,2.5-7.6c1.7-1.8,3.9-2.7,6.5-2.7c2.6,0,4.7,0.9,6.3,2.6c1.6,1.8,2.5,4.2,2.5,7.4
			c0,0.2,0,0.5,0,0.9H341c0.1,2.1,0.7,3.8,1.8,4.9c1.1,1.1,2.4,1.7,4,1.7c1.2,0,2.2-0.3,3.1-0.9C350.8-36.4,351.5-37.4,352-38.8z
			 M341.2-44.1H352c-0.1-1.6-0.6-2.9-1.2-3.7c-1.1-1.3-2.4-1.9-4.1-1.9c-1.5,0-2.8,0.5-3.8,1.5C341.9-47.1,341.3-45.8,341.2-44.1z
			 M368.7-42.2c0-3.6,1-6.3,3-8c1.7-1.4,3.7-2.2,6.1-2.2c2.7,0,4.8,0.9,6.5,2.6c1.7,1.7,2.5,4.1,2.5,7.2c0,2.5-0.4,4.4-1.1,5.9
			c-0.7,1.4-1.8,2.5-3.3,3.3c-1.4,0.8-3,1.2-4.7,1.2c-2.7,0-4.9-0.9-6.6-2.6C369.5-36.5,368.7-39,368.7-42.2z M372-42.2
			c0,2.5,0.5,4.3,1.6,5.6c1.1,1.2,2.4,1.8,4.1,1.8c1.6,0,3-0.6,4.1-1.9c1.1-1.2,1.6-3.1,1.6-5.7c0-2.4-0.5-4.2-1.6-5.4
			c-1.1-1.2-2.4-1.9-4-1.9c-1.6,0-3,0.6-4.1,1.8C372.6-46.6,372-44.7,372-42.2z M393.7-32.6h-3v-26.7h3.3v9.5
			c1.4-1.7,3.2-2.6,5.3-2.6c1.2,0,2.3,0.2,3.4,0.7s1.9,1.2,2.6,2c0.7,0.9,1.2,1.9,1.6,3.1c0.4,1.2,0.6,2.5,0.6,3.9
			c0,3.3-0.8,5.9-2.5,7.7c-1.6,1.8-3.6,2.7-5.9,2.7c-2.3,0-4.1-1-5.4-2.9V-32.6z M393.6-42.4c0,2.3,0.3,4,0.9,5
			c1,1.7,2.4,2.5,4.2,2.5c1.4,0,2.7-0.6,3.7-1.9c1.1-1.2,1.6-3.1,1.6-5.6c0-2.5-0.5-4.4-1.5-5.6c-1-1.2-2.2-1.8-3.6-1.8
			c-1.4,0-2.7,0.6-3.7,1.9C394.2-46.5,393.6-44.7,393.6-42.4z M411.4-55.5v-3.8h3.3v3.8H411.4z M407.2-25l0.6-2.8
			c0.7,0.2,1.2,0.2,1.5,0.2c0.7,0,1.2-0.2,1.5-0.7c0.3-0.4,0.5-1.5,0.5-3.3v-20.3h3.3v20.4c0,2.4-0.3,4-0.9,5
			c-0.8,1.2-2.1,1.8-3.9,1.8C408.9-24.7,408.1-24.8,407.2-25z M432.9-38.8l3.4,0.4c-0.5,2-1.5,3.5-3,4.6c-1.4,1.1-3.3,1.6-5.5,1.6
			c-2.8,0-5.1-0.9-6.8-2.6c-1.7-1.8-2.5-4.2-2.5-7.3c0-3.3,0.8-5.8,2.5-7.6c1.7-1.8,3.9-2.7,6.5-2.7c2.6,0,4.7,0.9,6.3,2.6
			c1.6,1.8,2.5,4.2,2.5,7.4c0,0.2,0,0.5,0,0.9H422c0.1,2.1,0.7,3.8,1.8,4.9c1.1,1.1,2.4,1.7,4,1.7c1.2,0,2.2-0.3,3.1-0.9
			C431.8-36.4,432.4-37.4,432.9-38.8z M422.2-44.1H433c-0.1-1.6-0.6-2.9-1.2-3.7c-1.1-1.3-2.4-1.9-4.1-1.9c-1.5,0-2.8,0.5-3.8,1.5
			C422.8-47.1,422.3-45.8,422.2-44.1z M453.1-39.7l3.2,0.4c-0.3,2.2-1.2,4-2.7,5.2c-1.4,1.2-3.2,1.9-5.3,1.9c-2.7,0-4.8-0.9-6.4-2.6
			c-1.6-1.7-2.4-4.2-2.4-7.5c0-2.1,0.3-3.9,1-5.5c0.7-1.6,1.8-2.8,3.2-3.5c1.4-0.8,3-1.2,4.6-1.2c2.1,0,3.8,0.5,5.2,1.6
			c1.3,1.1,2.2,2.6,2.6,4.5l-3.2,0.5c-0.3-1.3-0.8-2.3-1.6-2.9c-0.8-0.7-1.7-1-2.8-1c-1.7,0-3,0.6-4,1.8c-1,1.2-1.5,3-1.5,5.6
			c0,2.6,0.5,4.5,1.5,5.7c1,1.2,2.3,1.8,3.9,1.8c1.3,0,2.4-0.4,3.2-1.2C452.3-36.8,452.9-38,453.1-39.7z M466.3-35.5l0.5,2.9
			c-0.9,0.2-1.7,0.3-2.5,0.3c-1.2,0-2.1-0.2-2.8-0.6c-0.7-0.4-1.1-0.9-1.4-1.5c-0.3-0.6-0.4-1.9-0.4-3.9v-11.1h-2.4v-2.5h2.4v-4.8
			l3.3-2v6.8h3.3v2.5H463V-38c0,0.9,0.1,1.5,0.2,1.8c0.1,0.3,0.3,0.5,0.6,0.6c0.3,0.2,0.6,0.2,1.1,0.2
			C465.2-35.4,465.7-35.4,466.3-35.5z M469.5-55.5v-3.8h3.3v3.8H469.5z M469.5-32.6v-19.4h3.3v19.4H469.5z M483.2-32.6l-7.4-19.4
			h3.5l4.2,11.6c0.4,1.2,0.9,2.6,1.2,3.9c0.3-1,0.7-2.2,1.2-3.7l4.3-11.8h3.4l-7.3,19.4H483.2z M509.7-38.8l3.4,0.4
			c-0.5,2-1.5,3.5-3,4.6c-1.4,1.1-3.3,1.6-5.5,1.6c-2.8,0-5.1-0.9-6.8-2.6c-1.7-1.8-2.5-4.2-2.5-7.3c0-3.3,0.8-5.8,2.5-7.6
			c1.7-1.8,3.9-2.7,6.5-2.7c2.6,0,4.7,0.9,6.3,2.6c1.6,1.8,2.5,4.2,2.5,7.4c0,0.2,0,0.5,0,0.9h-14.4c0.1,2.1,0.7,3.8,1.8,4.9
			c1.1,1.1,2.4,1.7,4,1.7c1.2,0,2.2-0.3,3.1-0.9C508.5-36.4,509.2-37.4,509.7-38.8z M498.9-44.1h10.8c-0.1-1.6-0.6-2.9-1.2-3.7
			c-1.1-1.3-2.4-1.9-4.1-1.9c-1.5,0-2.8,0.5-3.8,1.5C499.6-47.1,499-45.8,498.9-44.1z M515.9-38.3l3.2-0.5c0.2,1.3,0.7,2.3,1.5,3
			c0.8,0.7,2,1,3.5,1c1.5,0,2.6-0.3,3.4-0.9c0.7-0.6,1.1-1.3,1.1-2.2c0-0.7-0.3-1.3-1-1.8c-0.4-0.3-1.6-0.7-3.4-1.1
			c-2.4-0.6-4.1-1.1-5-1.6c-0.9-0.4-1.6-1.1-2.1-1.8c-0.5-0.8-0.7-1.7-0.7-2.6c0-0.9,0.2-1.7,0.6-2.4c0.4-0.7,0.9-1.4,1.6-1.8
			c0.5-0.4,1.2-0.7,2.1-1c0.9-0.3,1.8-0.4,2.8-0.4c1.5,0,2.8,0.2,4,0.7c1.2,0.4,2,1,2.5,1.8c0.6,0.8,0.9,1.8,1.1,3l-3.2,0.4
			c-0.1-1-0.6-1.8-1.3-2.3c-0.7-0.6-1.7-0.8-3-0.8c-1.5,0-2.6,0.2-3.2,0.8c-0.6,0.5-1,1.1-1,1.8c0,0.4,0.1,0.8,0.4,1.1
			c0.3,0.4,0.7,0.6,1.3,0.9c0.3,0.1,1.3,0.4,2.9,0.8c2.3,0.6,3.9,1.1,4.9,1.5c0.9,0.4,1.6,1,2.2,1.7c0.5,0.8,0.8,1.7,0.8,2.8
			c0,1.1-0.3,2.1-1,3.1c-0.6,1-1.6,1.7-2.8,2.2c-1.2,0.5-2.6,0.8-4.1,0.8c-2.5,0-4.4-0.5-5.8-1.6C517.1-34.7,516.2-36.3,515.9-38.3z
			"/>
		<path class="st2" d="M16-1.3h459.8v449.2H16V-1.3z"/>
		<g transform="matrix(0.34498620298159094 0.0 0.0 0.3449708661417323 11.355552255626987 74.84776902887138)">
			<g>
				<defs>
					<rect id="SVGID_00000177479939320472845580000010074558355708236694_" x="450" y="205.8" width="459.8" height="449.2"/>
				</defs>
				<clipPath id="SVGID_00000164498399914889914950000010758262574311497861_">
					<use xlink:href="#SVGID_00000177479939320472845580000010074558355708236694_"  style="overflow:visible;"/>
				</clipPath>
				<g style="clip-path:url(#SVGID_00000164498399914889914950000010758262574311497861_);enable-background:new    ;">
					
						<image style="overflow:visible;" width="1360" height="1302" xlink:href="AA113C21A0A646D3.png"  transform="matrix(1 0 0 1 0 -220.6736)">
					</image>
				</g>
			</g>
		</g>
		<path class="st2" d="M491.8-1.3H944v441.6H491.8V-1.3z"/>
		<g transform="matrix(0.3392149468236395 0.0 0.0 0.3392 487.2794135461159 74.84776902887138)">
			<g>
				<defs>
					<rect id="SVGID_00000158017048241906450300000000314017778422309294_" x="453.9" y="205.8" width="452.2" height="441.6"/>
				</defs>
				<clipPath id="SVGID_00000051361009978972856870000002008521008009860786_">
					<use xlink:href="#SVGID_00000158017048241906450300000000314017778422309294_"  style="overflow:visible;"/>
				</clipPath>
				<g style="clip-path:url(#SVGID_00000051361009978972856870000002008521008009860786_);enable-background:new    ;">
					
						<image style="overflow:visible;" width="1360" height="1302" xlink:href="AA113C21A0A646D1.png"  transform="matrix(1 0 0 1 0 -224.428)">
					</image>
				</g>
			</g>
		</g>
	</g>
</g>
</svg>
