<?xml version="1.0" encoding="UTF-8"?>
<svg id="Layer_1" data-name="Layer 1" xmlns="http://www.w3.org/2000/svg" viewBox="0 0 1095 462.91">
  <defs>
    <style>
      .cls-1 {
        fill: red;
      }

      .cls-1, .cls-2, .cls-3 {
        font-size: 36px;
      }

      .cls-1, .cls-2, .cls-4 {
        font-family: MinionVariableConcept-Roman, 'Minion Variable Concept';
        font-variation-settings: 'wght' 400, 'opsz' 11;
      }

      .cls-1, .cls-5 {
        stroke: #ff1d25;
      }

      .cls-6 {
        letter-spacing: 0em;
      }

      .cls-7 {
        letter-spacing: 0em;
      }

      .cls-8, .cls-3 {
        fill: #009245;
      }

      .cls-9 {
        fill: #fff;
      }

      .cls-10 {
        fill: #231f20;
      }

      .cls-11 {
        letter-spacing: 0em;
      }

      .cls-12 {
        letter-spacing: 0em;
      }

      .cls-13 {
        stroke: #009245;
      }

      .cls-13, .cls-5, .cls-14, .cls-15 {
        fill: none;
        stroke-width: 4px;
      }

      .cls-16 {
        letter-spacing: .02em;
      }

      .cls-17 {
        letter-spacing: 0em;
      }

      .cls-18 {
        letter-spacing: 0em;
      }

      .cls-19 {
        letter-spacing: 0em;
      }

      .cls-20 {
        letter-spacing: 0em;
      }

      .cls-21 {
        letter-spacing: -.02em;
      }

      .cls-22 {
        letter-spacing: 0em;
      }

      .cls-23 {
        letter-spacing: -.02em;
      }

      .cls-24 {
        letter-spacing: -.02em;
      }

      .cls-25 {
        letter-spacing: -.01em;
      }

      .cls-3, .cls-26 {
        font-family: MinionConceptRoman-Bold, 'Minion Variable Concept';
        font-variation-settings: 'wght' 700, 'opsz' 11;
        font-weight: 700;
      }

      .cls-5, .cls-14, .cls-15 {
        stroke-miterlimit: 10;
      }

      .cls-14 {
        stroke: #231f20;
      }

      .cls-15, .cls-4 {
        stroke: blue;
      }

      .cls-26 {
        font-size: 60px;
      }

      .cls-27 {
        letter-spacing: 0em;
      }

      .cls-28 {
        letter-spacing: 0em;
      }

      .cls-29 {
        letter-spacing: 0em;
      }

      .cls-30 {
        letter-spacing: 0em;
      }

      .cls-31 {
        letter-spacing: .03em;
      }

      .cls-32 {
        letter-spacing: .02em;
      }

      .cls-33 {
        letter-spacing: -.01em;
      }

      .cls-34 {
        letter-spacing: 0em;
      }

      .cls-35 {
        letter-spacing: 0em;
      }

      .cls-36 {
        letter-spacing: .04em;
      }

      .cls-37 {
        letter-spacing: 0em;
      }

      .cls-38 {
        letter-spacing: -.02em;
      }

      .cls-39 {
        letter-spacing: 0em;
      }

      .cls-4 {
        fill: blue;
        font-size: 48px;
      }

      .cls-40 {
        letter-spacing: .01em;
      }

      .cls-41 {
        letter-spacing: -.02em;
      }

      .cls-42 {
        letter-spacing: 0em;
      }

      .cls-43 {
        letter-spacing: 0em;
      }

      .cls-44 {
        letter-spacing: 0em;
      }

      .cls-45 {
        letter-spacing: 0em;
      }

      .cls-46 {
        letter-spacing: 0em;
      }

      .cls-47 {
        letter-spacing: .02em;
      }

      .cls-48 {
        letter-spacing: -.03em;
      }
    </style>
  </defs>
  <g>
    <rect class="cls-9" x="2.5" y="4.41" width="181" height="104" rx="34.33" ry="34.33"/>
    <path d="m149.17,6.91c17.55,0,31.83,14.28,31.83,31.83v35.34c0,17.55-14.28,31.83-31.83,31.83H36.83c-17.55,0-31.83-14.28-31.83-31.83v-35.34c0-17.55,14.28-31.83,31.83-31.83h112.34m0-5H36.83C16.49,1.91,0,18.4,0,38.74v35.34c0,20.34,16.49,36.83,36.83,36.83h112.34c20.34,0,36.83-16.49,36.83-36.83v-35.34c0-20.34-16.49-36.83-36.83-36.83h0Z"/>
  </g>
  <text class="cls-2" transform="translate(15.22 44.79)"><tspan x="0" y="0">Ec</tspan><tspan class="cls-18" x="36.61" y="0">o</tspan><tspan class="cls-28" x="54.97" y="0">n</tspan><tspan class="cls-18" x="74.73" y="0">o</tspan><tspan x="93.09" y="0">m</tspan><tspan class="cls-28" x="122.51" y="0">i</tspan><tspan x="132.12" y="0">c </tspan><tspan class="cls-32" x="24.5" y="43.2">O</tspan><tspan class="cls-6" x="52.22" y="43.2">u</tspan><tspan class="cls-27" x="71.44" y="43.2">t</tspan><tspan x="82.1" y="43.2">put</tspan></text>
  <g>
    <rect class="cls-9" x="423.5" y="4.41" width="181" height="104" rx="34.33" ry="34.33"/>
    <path d="m570.17,6.91c17.55,0,31.83,14.28,31.83,31.83v35.34c0,17.55-14.28,31.83-31.83,31.83h-112.34c-17.55,0-31.83-14.28-31.83-31.83v-35.34c0-17.55,14.28-31.83,31.83-31.83h112.34m0-5h-112.34c-20.34,0-36.83,16.49-36.83,36.83v35.34c0,20.34,16.49,36.83,36.83,36.83h112.34c20.34,0,36.83-16.49,36.83-36.83v-35.34c0-20.34-16.49-36.83-36.83-36.83h0Z"/>
  </g>
  <text class="cls-2" transform="translate(473.57 44.79)"><tspan class="cls-28" x="0" y="0">G</tspan><tspan class="cls-45" x="26.32" y="0">H</tspan><tspan x="54.75" y="0">G</tspan><tspan x="-33.35" y="43.2">Em</tspan><tspan class="cls-18" x="17.26" y="43.2">i</tspan><tspan x="26.8" y="43.2">ss</tspan><tspan class="cls-28" x="53.66" y="43.2">i</tspan><tspan class="cls-18" x="63.27" y="43.2">o</tspan><tspan class="cls-33" x="81.63" y="43.2">n</tspan><tspan class="cls-6" x="101.14" y="43.2">s</tspan></text>
  <g>
    <rect class="cls-9" x="843.5" y="4.41" width="249" height="104" rx="34.33" ry="34.33"/>
    <path d="m1058.17,6.91c17.55,0,31.83,14.28,31.83,31.83v35.34c0,17.55-14.28,31.83-31.83,31.83h-180.34c-17.55,0-31.83-14.28-31.83-31.83v-35.34c0-17.55,14.28-31.83,31.83-31.83h180.34m0-5h-180.34c-20.34,0-36.83,16.49-36.83,36.83v35.34c0,20.34,16.49,36.83,36.83,36.83h180.34c20.34,0,36.83-16.49,36.83-36.83v-35.34c0-20.34-16.49-36.83-36.83-36.83h0Z"/>
  </g>
  <text class="cls-2" transform="translate(924.57 44.79)"><tspan class="cls-28" x="0" y="0">G</tspan><tspan class="cls-45" x="26.32" y="0">H</tspan><tspan x="54.75" y="0">G</tspan><tspan class="cls-35" x="-72.18" y="43.2">C</tspan><tspan class="cls-18" x="-47.09" y="43.2">o</tspan><tspan class="cls-28" x="-28.73" y="43.2">n</tspan><tspan x="-8.96" y="43.2">ce</tspan><tspan class="cls-29" x="21.99" y="43.2">n</tspan><tspan class="cls-18" x="41.65" y="43.2">t</tspan><tspan x="52.38" y="43.2">r</tspan><tspan class="cls-39" x="65.77" y="43.2">a</tspan><tspan class="cls-43" x="81.54" y="43.2">t</tspan><tspan class="cls-28" x="92.48" y="43.2">i</tspan><tspan class="cls-18" x="102.09" y="43.2">o</tspan><tspan class="cls-33" x="120.45" y="43.2">n</tspan><tspan class="cls-6" x="139.97" y="43.2">s</tspan></text>
  <g>
    <rect class="cls-9" x="877.5" y="356.41" width="181" height="104" rx="34.33" ry="34.33"/>
    <path d="m1024.17,358.91c17.55,0,31.83,14.28,31.83,31.83v35.34c0,17.55-14.28,31.83-31.83,31.83h-112.34c-17.55,0-31.83-14.28-31.83-31.83v-35.34c0-17.55,14.28-31.83,31.83-31.83h112.34m0-5h-112.34c-20.34,0-36.83,16.49-36.83,36.83v35.34c0,20.34,16.49,36.83,36.83,36.83h112.34c20.34,0,36.83-16.49,36.83-36.83v-35.34c0-20.34-16.49-36.83-36.83-36.83h0Z"/>
  </g>
  <text class="cls-2" transform="translate(899.87 396.79)"><tspan class="cls-36" x="0" y="0">R</tspan><tspan class="cls-37" x="23.54" y="0">a</tspan><tspan x="39.49" y="0">d</tspan><tspan class="cls-37" x="58.75" y="0">i</tspan><tspan class="cls-39" x="68.33" y="0">a</tspan><tspan class="cls-43" x="84.1" y="0">t</tspan><tspan class="cls-28" x="95.04" y="0">i</tspan><tspan class="cls-7" x="104.65" y="0">v</tspan><tspan x="121.07" y="0">e</tspan><tspan class="cls-33" x="12.01" y="43.2">F</tspan><tspan class="cls-18" x="31.37" y="43.2">o</tspan><tspan class="cls-12" x="49.73" y="43.2">r</tspan><tspan class="cls-45" x="62.8" y="43.2">c</tspan><tspan x="78.39" y="43.2">i</tspan><tspan class="cls-12" x="88.15" y="43.2">n</tspan><tspan x="107.73" y="43.2">g</tspan></text>
  <g>
    <rect class="cls-9" x="423.5" y="356.41" width="181" height="104" rx="34.33" ry="34.33"/>
    <path d="m570.17,358.91c17.55,0,31.83,14.28,31.83,31.83v35.34c0,17.55-14.28,31.83-31.83,31.83h-112.34c-17.55,0-31.83-14.28-31.83-31.83v-35.34c0-17.55,14.28-31.83,31.83-31.83h112.34m0-5h-112.34c-20.34,0-36.83,16.49-36.83,36.83v35.34c0,20.34,16.49,36.83,36.83,36.83h112.34c20.34,0,36.83-16.49,36.83-36.83v-35.34c0-20.34-16.49-36.83-36.83-36.83h0Z"/>
  </g>
  <text class="cls-2" transform="translate(456.54 396.79)"><tspan class="cls-35" x="0" y="0">C</tspan><tspan class="cls-6" x="25.09" y="0">lim</tspan><tspan class="cls-39" x="73.62" y="0">a</tspan><tspan class="cls-41" x="89.39" y="0">t</tspan><tspan x="99.72" y="0">e</tspan><tspan class="cls-35" x="1.4" y="43.2">C</tspan><tspan x="26.49" y="43.2">ha</tspan><tspan class="cls-11" x="62.17" y="43.2">ng</tspan><tspan x="98.31" y="43.2">e</tspan></text>
  <g>
    <rect class="cls-9" x="2.5" y="356.41" width="181" height="104" rx="34.33" ry="34.33"/>
    <path d="m149.17,358.91c17.55,0,31.83,14.28,31.83,31.83v35.34c0,17.55-14.28,31.83-31.83,31.83H36.83c-17.55,0-31.83-14.28-31.83-31.83v-35.34c0-17.55,14.28-31.83,31.83-31.83h112.34m0-5H36.83c-20.34,0-36.83,16.49-36.83,36.83v35.34c0,20.34,16.49,36.83,36.83,36.83h112.34c20.34,0,36.83-16.49,36.83-36.83v-35.34c0-20.34-16.49-36.83-36.83-36.83h0Z"/>
  </g>
  <text class="cls-2" transform="translate(35.54 396.79)"><tspan class="cls-35" x="0" y="0">C</tspan><tspan class="cls-6" x="25.09" y="0">lim</tspan><tspan class="cls-39" x="73.62" y="0">a</tspan><tspan class="cls-41" x="89.39" y="0">t</tspan><tspan x="99.72" y="0">e</tspan><tspan class="cls-48" x="-.52" y="43.2">I</tspan><tspan class="cls-28" x="11.36" y="43.2">m</tspan><tspan class="cls-44" x="40.62" y="43.2">pa</tspan><tspan class="cls-40" x="75.55" y="43.2">c</tspan><tspan class="cls-43" x="91.42" y="43.2">ts</tspan></text>
  <g>
    <line class="cls-14" x1="186" y1="56.41" x2="389.76" y2="56.41"/>
    <polygon class="cls-10" points="418 56.41 378.2 72.67 387.65 56.41 378.2 40.15 418 56.41"/>
  </g>
  <g>
    <line class="cls-14" x1="607" y1="56.41" x2="809.64" y2="56.41"/>
    <polygon class="cls-10" points="837.88 56.41 798.09 72.67 807.53 56.41 798.09 40.15 837.88 56.41"/>
  </g>
  <g>
    <line class="cls-14" x1="968" y1="110.91" x2="968" y2="325.66"/>
    <polygon class="cls-10" points="968 353.91 951.74 314.11 968 323.55 984.26 314.11 968 353.91"/>
  </g>
  <g>
    <line class="cls-14" x1="870.76" y1="408.41" x2="639.07" y2="408.41"/>
    <polygon class="cls-10" points="610.82 408.41 650.62 392.14 641.18 408.41 650.62 424.66 610.82 408.41"/>
  </g>
  <g>
    <polyline class="cls-14" points="420.82 408.41 389.29 408.41 214.24 408.41"/>
    <polygon class="cls-10" points="186 408.41 225.8 392.14 216.35 408.41 225.8 424.66 186 408.41"/>
  </g>
  <circle class="cls-5" cx="304" cy="20.91" r="14"/>
  <text class="cls-1" transform="translate(293.42 30.2)"><tspan x="0" y="0">+</tspan></text>
  <circle class="cls-5" cx="724" cy="20.91" r="14"/>
  <text class="cls-1" transform="translate(713.42 30.2)"><tspan x="0" y="0">+</tspan></text>
  <circle class="cls-5" cx="1000" cy="232.91" r="14"/>
  <text class="cls-1" transform="translate(989.42 241.2)"><tspan x="0" y="0">+</tspan></text>
  <circle class="cls-5" cx="755" cy="439.91" r="14"/>
  <text class="cls-1" transform="translate(744.42 449.2)"><tspan x="0" y="0">+</tspan></text>
  <circle class="cls-5" cx="304" cy="439.91" r="14"/>
  <text class="cls-1" transform="translate(293.42 449.2)"><tspan x="0" y="0">+</tspan></text>
  <circle class="cls-5" cx="27" cy="228.91" r="14"/>
  <text class="cls-1" transform="translate(16.42 238.2)"><tspan x="0" y="0">+</tspan></text>
  <g>
    <line class="cls-14" x1="93" y1="353.91" x2="93" y2="139.15"/>
    <polygon class="cls-10" points="93 110.91 109.26 150.7 93 141.26 76.74 150.7 93 110.91"/>
  </g>
  <circle class="cls-15" cx="71" cy="237.91" r="14"/>
  <text class="cls-4" transform="translate(62.84 249.2)"><tspan x="0" y="0">-</tspan></text>
  <text class="cls-26" transform="translate(38.73 247.16)"><tspan x="0" y="0">/</tspan></text>
  <text class="cls-3" transform="translate(199.14 191.11)"><tspan class="cls-21" x="0" y="0">M</tspan><tspan class="cls-12" x="31.79" y="0">i</tspan><tspan class="cls-42" x="42.08" y="0">t</tspan><tspan class="cls-30" x="54" y="0">i</tspan><tspan x="64.33" y="0">g</tspan><tspan class="cls-24" x="81.97" y="0">a</tspan><tspan class="cls-44" x="98.5" y="0">t</tspan><tspan class="cls-20" x="110.41" y="0">i</tspan><tspan x="121.25" y="0">on</tspan></text>
  <text class="cls-3" transform="translate(271.26 312.48)"><tspan class="cls-16" x="0" y="0">A</tspan><tspan class="cls-46" x="23" y="0">d</tspan><tspan x="43.16" y="0">ap</tspan><tspan class="cls-17" x="79.95" y="0">t</tspan><tspan class="cls-23" x="91.83" y="0">a</tspan><tspan class="cls-37" x="108.36" y="0">t</tspan><tspan class="cls-20" x="120.27" y="0">i</tspan><tspan x="131.11" y="0">on</tspan></text>
  <text class="cls-3" transform="translate(629.09 137.39)"><tspan class="cls-45" x="0" y="0">C</tspan><tspan x="25.34" y="0">ar</tspan><tspan class="cls-22" x="57.09" y="0">b</tspan><tspan x="76.97" y="0">on</tspan><tspan x="-46.96" y="43.2">S</tspan><tspan class="cls-47" x="-28.35" y="43.2">e</tspan><tspan x="-11.5" y="43.2">q</tspan><tspan class="cls-20" x="8.08" y="43.2">ue</tspan><tspan class="cls-38" x="44.58" y="43.2">s</tspan><tspan class="cls-27" x="58.19" y="43.2">t</tspan><tspan class="cls-43" x="70" y="43.2">r</tspan><tspan class="cls-24" x="84.65" y="43.2">a</tspan><tspan class="cls-42" x="101.18" y="43.2">t</tspan><tspan class="cls-20" x="113.09" y="43.2">i</tspan><tspan x="123.93" y="43.2">on</tspan></text>
  <text class="cls-3" transform="translate(660.15 249.48)"><tspan x="0" y="0">S</tspan><tspan class="cls-19" x="18.61" y="0">o</tspan><tspan class="cls-46" x="38.02" y="0">l</tspan><tspan x="48.45" y="0">ar</tspan><tspan class="cls-31" x="-35.59" y="43.2">R</tspan><tspan x="-11.03" y="43.2">ad</tspan><tspan class="cls-45" x="26.04" y="43.2">i</tspan><tspan class="cls-24" x="36.84" y="43.2">a</tspan><tspan class="cls-44" x="53.37" y="43.2">t</tspan><tspan class="cls-20" x="65.29" y="43.2">i</tspan><tspan x="76.12" y="43.2">on</tspan><tspan class="cls-21" x="-59.11" y="86.4">M</tspan><tspan class="cls-43" x="-27.32" y="86.4">a</tspan><tspan class="cls-11" x="-10.22" y="86.4">na</tspan><tspan class="cls-18" x="26.71" y="86.4">g</tspan><tspan class="cls-34" x="44.14" y="86.4">eme</tspan><tspan class="cls-25" x="107.24" y="86.4">n</tspan><tspan class="cls-43" x="127.22" y="86.4">t</tspan></text>
  <g>
    <path class="cls-13" d="m406.97,92.37c-36.63,7.2-78.92,21.67-118.97,50.54-5.78,4.17-11.25,8.44-16.42,12.78"/>
    <path class="cls-8" d="m405.4,92.69c-3.38,4.85-3.89,13.34-3.04,19.01,4.29-8.59,10.44-16.51,18.65-21.8-9.5-1.97-17.76-7.72-25.04-14,1.56,5.96,4.35,13.03,9.43,16.78Z"/>
  </g>
  <path class="cls-15" d="m373,132.91c0,7.73-6.27,14-14,14s-14-6.27-14-14,6.27-15,14-15,14,7.27,14,15Z"/>
  <text class="cls-4" transform="translate(350.84 144.2)"><tspan x="0" y="0">-</tspan></text>
  <path class="cls-15" d="m874.49,178c0,7.73-6.27,14-14,14s-14-6.27-14-14,6.27-15,14-15,14,7.27,14,15Z"/>
  <text class="cls-4" transform="translate(852.33 189.29)"><tspan x="0" y="0">-</tspan></text>
  <g>
    <path class="cls-13" d="m779,143.91c80.92,12.99,121.91,12,136.95-15.91"/>
    <path class="cls-8" d="m915.11,129.43c-5.91.17-13.28-4.06-17.57-7.88,9.53,1.12,19.53.32,28.45-3.64-3.57,9.02-3.28,19.09-2.02,28.61-4.13-4.57-8.51-10.78-8.86-17.09Z"/>
  </g>
  <g>
    <path class="cls-13" d="m799,275.91c11.08-1.91,39.5,4.96,66,15,27.37,10.37,44.44,28.93,53.73,41.94"/>
    <path class="cls-8" d="m917.73,331.58c1.25-5.78,7.12-11.93,11.85-15.17-3.37,8.99-4.98,18.89-3.26,28.5-7.91-5.62-17.75-7.75-27.3-8.8,5.43-2.91,12.51-5.69,18.71-4.52Z"/>
  </g>
  <path class="cls-15" d="m870.61,253.41c7.73,0,14,7.27,14,15s-6.27,14-14,14-14-6.27-14-14,6.27-15,14-15"/>
  <text class="cls-4" transform="translate(862.46 279.7)"><tspan x="0" y="0">-</tspan></text>
  <g>
    <path class="cls-13" d="m270,295.91c-7.82-2.56-59.84-5.01-90,6-21.66,7.91-35.69,21.77-43.78,32.16"/>
    <path class="cls-8" d="m137.25,332.81c5.81-1.1,13.76,1.92,18.59,5.01-9.59.39-19.33,2.76-27.52,8.08,2.1-9.47.23-19.37-2.51-28.57,4.8,3.87,10.11,9.31,11.45,15.48Z"/>
  </g>
  <path class="cls-15" d="m199.61,306.41c7.73,0,14,7.27,14,15s-6.27,14-14,14-14-6.27-14-14,6.27-15,14-15"/>
  <text class="cls-4" transform="translate(191.46 332.7)"><tspan x="0" y="0">-</tspan></text>
</svg>